<?xml version="1.0" encoding="utf-8"?>
<!-- Generator: Adobe Illustrator 19.1.0, SVG Export Plug-In . SVG Version: 6.00 Build 0)  -->
<svg version="1.1" id="Layer_1" xmlns="http://www.w3.org/2000/svg" xmlns:xlink="http://www.w3.org/1999/xlink" x="0px" y="0px"
	 viewBox="0 0 690.1 151" style="enable-background:new 0 0 690.1 151;" xml:space="preserve">
<style type="text/css">
	.st0{fill:#2BABE2;}
	.st1{fill:#5FBA47;}
	.st2{fill:#E4B632;}
	.st3{fill:#C4202F;}
	.st4{fill:#4B9F46;}
	.st5{fill:#418045;}
	.st6{fill:#F8C219;}
	.st7{fill:#EE422A;}
	.st8{fill:#F99E29;}
	.st9{fill:#1D95D3;}
	.st10{fill:#A21C44;}
	.st11{fill:#29BCE1;}
	.st12{fill:#F16B2D;}
	.st13{fill:#E6253D;}
	.st14{fill:#DC1769;}
	.st15{fill:#16496B;}
	.st16{fill:#C5962E;}
	.st17{fill:#086A9D;}
	.st18{fill:#FFFFFF;}
</style>
<g>
	<path class="st0" d="M145.7,36c6.5,12.6,8.4,30,4.2,44.3c-4.3,16.8-18.5,33.9-35,40.8c-18.6,9.1-45,6.8-61.5-5
		c-23-15.8-32.4-43-25.5-69.8c4.2-15.9,16.9-32,32.4-39.4C69,2.5,78.5,0.2,88.9,0C112.6,0,135.3,14,145.7,36z M90.2,3.1
		c0.4,2.5,0.3,5.9,0.1,8.7c0-0.3,0.1-0.5,0.3-0.8c0.4-0.3,0.8,0.1,1,0.4c0,0.4,0.2,1.2-0.2,1.4c0.4,0.1,0.6-0.2,0.9-0.2
		c7.2,0.5,13.9,2.6,19.9,6v-0.2c1.2-0.6,2.8-1.4,4.1-0.3c1.5-0.6,1.8,1.3,3,1.5c1.5,0.9,3.1,2.5,3.3,4.3c0.3,0.6,1.2,1,1.3,1.6
		c1-2.1,3-3.7,4.8-5.5l1.1-0.4c-9.5-9.1-20.8-14.1-33.4-15.8C94.3,3.5,92.1,3.7,90.2,3.1z M86.6,3.4C74,3.9,62.7,8.2,52.8,15.4
		c-1.9,1.3-3.6,3.3-5.6,4.5h0.3c2.5,1.8,4.9,4.4,7,6.7l0.2-0.4c9.2-8.4,19.9-13,32.2-13.5l-0.3-0.8l-0.1-7.6L86.6,3.4z M97.4,8.2
		l-4.5,2c-0.4-0.2-1.1-0.3-1.4,0.2c-0.2,0.2,0,0.4,0.1,0.5c1.7,2.1,4.6,0.9,6.6,0.5c1.5,0.6,3-0.1,4.1-1.1V10
		C101.3,8.5,99.3,8.3,97.4,8.2z M90.1,15.9l0.3,0.6c-0.1,2.9,0.1,6-0.2,8.8c1.2-0.4,2.4,0.1,3.6,0.1c6.2,1,12,3,16.9,6.8
		c-0.6-0.6-1.3-1.4-1.4-2.3c0.1-0.1,0.2-0.2,0.4-0.1c0.1-1-1-1.5-1.1-2.4c0.2-0.2,0.4-0.4,0.7-0.3c1.1,1,2,2.1,2.8,3.2
		c0.7-0.3,1.3,0.2,1.8,0.5c0.9,0.5,0.3,1.7,1,2.3c0.1,1.9,2.4,2.9,2.3,4.8c0,0.4,0.6,0.1,0.8,0.3l1.9,2.3c-0.3,0.4-0.1,1,0.3,1.3
		c0.9,0.4,1.3-0.7,2.2-0.5c1.2,0.7-0.2,1.5-0.1,2.3c0.5,0,1.1-0.4,1.4,0.1c0.2,0.7-0.6,1.1-0.9,1.6c0,0.7,0.6,0.5,1.1,0.7
		c0.6,0,0.9,0.7,0.8,1.1c1.6,1.6-0.5,3.4,0.3,5.1c0.5,1.1-0.1,2.2-0.8,3.1c0,1.4-1.2,2.2-1.7,3.4l-1.6,0.3c-0.9,0.9,0.7,1.9-0.1,2.4
		l3.5,0.1l-0.4-0.4c-0.5-1.4-0.4-3.2,0.5-4.5c0.5-1.1,0.7-2.5,1.7-3.5c0.2-0.1,0.6-0.5,0.8,0c0.1,1.1,0,2.3-0.5,3.2
		c1,1.4,0.9,3.3,1,5.1c3.1-0.2,6.2-0.3,9.2-0.2l-0.3-0.6c-0.5-5.8-1.7-11.3-4.1-16.3c-0.7,0-1.1,0.6-1.9,0.4
		c-0.3-0.1-0.4-0.3-0.4-0.6c-1.3-1.2-2-2.8-3.5-3.8c-1.6,0.2-2.3-1.7-3.8-1.9c-1.3-0.5-0.4-2.6-2.3-2c-0.9-0.4-1.8-1.1-2-2.1
		c0-1.6-0.3-3.4-1.8-4.5c-1.1-0.4-1.6,1.1-2.7,0.8c-0.6-0.3-0.3-1.1-0.5-1.7c-0.2-0.5-0.8-0.8-0.7-1.4c1.5-2-1.8-1.9-1.1-3.8
		c-0.2-1.4-1.6-1.9-2.3-3c-4.9-2.2-9.8-3.7-15.3-4.4C92.5,16.3,91.3,16.6,90.1,15.9z M118.6,16c-0.7,0.6-1.2-0.6-1.8,0.2
		c0,0.3,0,0.7,0.2,0.9c1.3,0.5,1.5,2.4,3.2,2c0.5-0.6-0.3-1.2-0.2-1.9C119.8,16.5,119.2,16.2,118.6,16z M62.1,24.5
		c-2,1.4-3.7,3.1-5.8,4.3c2.3,1.5,4.3,3.9,6.4,5.9l0.2,0.6c5.4-5.1,11.9-8.1,18.9-9.6c1.7-0.2,3.3-0.7,5-0.4c-0.1-3-0.4-6.1-0.1-9.1
		C77.6,16.8,69.4,19.6,62.1,24.5z M132,21.6c-1.7,2.3-4.1,4.5-6.3,6.7l-1.1,0.2c0.7,0.2,0.9,0.9,1.3,1.4c2.3,1.2,2.9,3.7,4.9,5.1
		c1.1,2.4,3.7,4.2,3.8,6.9c2.7,6,4.6,12.4,4.8,19.6l-0.3,0.4c0.3,0,0.5-0.1,0.8-0.3l9.1-0.2c-0.6-0.9-0.3-2.2-0.5-3.2
		C147.4,44.2,141.4,32.2,132,21.6z M45.4,21.8c-9,10-14.5,21.4-16.1,34.4c-0.3,1.9-0.1,3.8-0.5,5.8c3.1-0.3,6.6-0.3,9.7,0l-0.2-1.2
		c0.6-10,3.8-19,9.4-27c1.4-1.6,2.5-3.6,4.2-4.8c-2-1.9-4.2-4.2-6.3-6.3L45.4,21.8z M86.9,28.4l-0.5,0.3c-8,0.6-14.9,3.9-21,8.9
		c2.4,1.7,4.5,4.3,6.7,6.3c0.2-0.2,0.3-0.4,0.5-0.7c3-2.1,6.1-4.1,9.6-5c1.6-0.2,3.1-0.9,4.8-0.5C86.5,34.7,86.5,31.5,86.9,28.4z
		 M90.2,28.5l0.3,0.7l-0.1,8.5l0.8-0.2c5.2,0.7,10,2.4,14.1,5.8l0.2,0.7c1.4-2,3.6-3.7,5.2-5.6l1.6-0.9l-0.8-0.3
		c-3.5-2.9-7.2-5.1-11.3-6.6C97.1,29.5,93.6,29,90.2,28.5z M54,30.8L54,31.4l-3.4,4.3c-5.6,7.7-8.2,16.5-9,26.1l8.6-0.2L51,62
		c-0.3-0.2-0.3-0.6-0.4-0.9c0.7-9,3.8-17,10-23.6C58.3,35.4,56.1,33.2,54,30.8z M114.3,39.6l-0.2,0.4c-2.9,3-6.1,6.1-8.8,9.2
		c0.2,0.4,0.5,0.7,0.9,0.9c0.1-0.8,0.5-1.4,0.6-2.2c0.8-1,1.9-0.4,2.9-0.2c1.5-0.3,2.9,0.3,4.5,0.3c1.1,0.6,1.2,2,2.3,2.6
		c0.3,0.4,0.1,0.9-0.3,1.2c0.3,2.4,1.4-0.6,2.6-0.1c0.5,0.2,1.1,0.1,1.5,0.7c0.2,1,1.4,0.8,1.4,1.7c-0.1,0.5-0.6,0.6-0.9,0.9
		c0.3,0.9-1,1.5-0.5,2.6c1.8,0.3,1.9-1.8,2.7-2.7c-0.5-1.6-0.8-3.3-1.8-4.8c-1-0.2-1.7-1.4-2.7-1.7c-2-0.8,0.3-2,0.1-3.2
		C117.4,43.2,115.7,41.4,114.3,39.6z M63,39.9c-4.3,5.2-7.3,10.9-8.5,17.4c-0.3,1.5-0.2,3.3-0.8,4.7c1.1-0.5,2.7-0.3,3.9-0.2
		c-0.7-0.4-0.1-1.3-0.5-1.8c-0.1-0.8-0.2-1.8,0.5-2.3c-0.1-1.3,1.3-2,1.4-3.1c0.3-1.3,1.9-0.4,2.6-1.1c0.5-0.3,0.1-0.7,0.1-1
		c0.6-0.8,1.6-0.8,2.4-1.3c0.5-0.8,1.2-1.7,2.1-2.2c1.9,0.1,1.9-2.6,3.7-2.6C67.6,44.5,65.2,42,63,39.9z M90.3,40.9
		c0.6,1.8,0.1,4.4,0.4,6.5l2.3,0.8c0.7-1.1,2.1-1.3,2.7-2.4c0.4-0.3,0.9,0,1.2,0.4c0.1,0.9-0.1,1.7-0.4,2.5c-0.8,1.7-2.9,1.9-4,3.1
		c0.7,0.4,1.1-0.3,1.7-0.5c0.9,0.1,1.6,0.9,2.1,1.4c0.6,0.3,1.1-0.1,1.6-0.3c0.3-2.6,3.6-2.2,4.6-4.7l-0.6,0.2
		c-0.3-0.3-0.9-0.2-0.9-0.8c0.5-0.5,1.2-1.3,1.9-1.5c-2.8-1.8-5.8-3.3-9-4.1C92.8,41.4,91.5,41.4,90.3,40.9z M73.3,47.5H74
		c0.8,0.8,2,0.6,2.6,1.6c0.3,0.6-0.5,0.5-0.5,1c0.2,0.1,0.4,0.2,0.5,0.4c0.6,0.2,0.5-0.3,0.7-0.6c0.8-0.8,0.9,0.8,1.7,0.8
		c0.5-0.3,1.3-0.4,1.7,0.2c0.5-0.4,1.6,0,1.7-0.8c1-1,0.4-2.6,1.9-3.3c0.5,0.3,0,0.8,0.2,1.2c1,0.4,2.1-0.8,2.9,0.2
		c-0.7-2-0.5-4.6-0.5-6.9C81.7,41.9,77,43.6,73.3,47.5z M88.6,52.7c-0.5-0.6-1.6-0.2-2.3,0c0.6,0.6,0.4,1.8,0.8,2.6
		c-0.9,1.6-2.5,1.9-4,2.4c-0.4,0.5-0.3,1.6-1.3,1.5c-0.3,0.7-1.4,1.1-1,2.1c-0.5,1.1-0.3,2.5-0.5,3.6c-1.9,1.2-1.3-1.5-2.3-2.1
		l-0.3,0.5c-0.4,0.1-0.6-0.1-0.9-0.4c-0.3-0.1-0.8-0.2-1,0.1c-0.4,0.7-1,1.3-0.9,2.2c-0.2,0.6-1.1,0.4-1,1c1,0,2.2-0.2,3.2-0.4
		c0.7,0.2,1.3-0.3,2-0.4c0.3,0.1,0.5,0.4,0.4,0.8h0.3c0.5-0.4,0.7-0.9,0.5-1.5c0.1-0.7,0.8-0.7,1.2-0.8c0.4,0.2,0.2,0.6,0.2,0.9
		c1.4,0.5-0.3,1.6-0.5,2.3c-0.4,0.6,0,2-1.2,1.8c-0.2-0.1-0.4-0.3-0.3-0.5h-0.2c0,0.5,0.3,1.2,0.9,1.4c0.9-0.7,0.9-2,2.2-2.1
		c0.7-0.7-0.3-1.8,0.7-2.3c1.6,0,3.4-0.7,4.7,0.6c-0.1,0.6-0.3,0.8,0.2,1.3c-0.3,0.7-0.5,1.5-1.1,2.1c0.2,0.4,0,0.9-0.3,1.2
		c-0.4,1.9-2.6,1-3.9,1.7c2,1.5,4.4,2.1,7,1.9c1.4-0.1,0.8-1.7,1.4-2.5c0.4-2.2,2.5-0.7,3.7-1.3c0.5-0.9,0.9-1.9,1.1-2.9
		c-0.8-0.5-1.1-1.4-0.8-2.4c-0.5-0.7-0.5-2-1.6-2.2c-0.2-0.3,0-0.6,0.1-0.8c0-0.7,0.7-0.9,0.8-1.4c-0.7-0.5-0.5-1.5-0.5-2.1
		c-1.2,0.3-1.4-1.3-2.3-1.6c-0.2-0.7-1-0.9-1.6-1c-1.5,0.7-1.8-1.1-2.9-1.6c-0.1-0.3-0.4-0.9,0-1.1c0.6-0.5,1.3-0.1,2-0.1L88.6,52.7
		z M61.2,60.5c-2.6,0.8,0.4,2.7-0.2,4.3c-0.3,0.9-1.3,0.1-2,0.4L58.8,67c-0.4,1-1.6,0.3-2.2,0.9c-0.4,0.6,0,1.3,0.4,1.8
		c-0.9,2,2,2.6,2,4.5c0.9,1.1-0.1,2.8,1.1,3.8c0.3,2-0.3,4.8,1.5,6.4l0.3,2c0.4,1.4-1.6,1-1.4,2.2c0.4-0.2,0.5,0.3,0.5,0.4v-0.1
		c2.4-2.8,5.2-5.8,8.1-8.3L68,79.4c-2.2-3.3-4-6.9-4.8-10.8l-0.9-0.5c0,1-0.5,1.8-0.4,2.8l-0.3,0.4c-0.7,0-1.1-0.6-1.6-0.9
		c-0.1-0.3-0.5-0.9,0.1-1.2c0.3,0,0.5,0.1,0.8,0.2c0.3-0.3,0.2-0.8,0.3-1.3c0.1-0.8-0.6-1.4-0.1-2.1c0.6-0.1,1,0.7,1.3,1.1
		c0.6,0.2,1.1-0.3,1.6-0.5c0-0.5,0.8-1.3-0.1-1.6c0.4-1.2,0.1-2.5-0.1-3.7C63.2,60.2,62.1,60.4,61.2,60.5z M120.2,61.6
		c-0.3,0.1-0.6,0-0.9,0.1C119.5,61.5,119.9,61.6,120.2,61.6z M118.2,64.7l1,1c1,0.7,0.3,2.1,1.4,2.6c1.2,0.6,1.7,2,2.2,3.1
		c0.2-0.3,0.2-0.6,0.3-0.9c0.4-1.7,0.4-3.7,0.9-5.4C122.1,65.2,119.9,65.4,118.2,64.7z M139.8,65.1l-0.5-0.4l0.3,0.8
		c-0.5,10.5-4,19.7-10,28c-1.2,1.4-2.3,3.1-3.7,4.1c2.4,1.9,5,4.7,7,6.9l0.3-0.5c9.6-11,15.1-23.7,15.7-38.5l0.4-0.8l-0.5,0.2
		L139.8,65.1z M127.1,64.9c0.2,1.9-0.3,3.8-0.4,5.7l1,1.1c0.3,0.4,0.2,1.1-0.2,1.4c-0.4,0.3-1,0.3-1.4-0.1c-1.3,4.2-2.9,8.3-5.5,12
		c-1,1.3-2,3.1-3.4,3.8l2.9,2.5c0.2-0.2,0.1-0.4,0.1-0.6c0-0.4,0.2-0.8,0.7-0.8c1.4,0,1.4,1.4,2.2,2.2c-0.2,1.2,0.9,2.1,0.5,3.2
		c7.9-8.4,11.9-18.6,12.6-30l0.4-0.5c-2.8,0.3-5.8,0.1-8.8,0.1L127.1,64.9z M53.7,65l0.5,0.8c0.1,2.1,0.9,4.1,0.4,6.2
		c0.3-0.6,0.4-1.4,1.2-1.8c0.1-0.6-0.8-0.7-0.7-1.3c0.6-1.2,0-3.1,1.6-3.6C55.6,65.5,54.6,65.7,53.7,65z M38.5,65.1l-0.8,0.3
		l-8.8-0.1c0.5,10.1,3.2,19.2,7.7,27.6c2.2,4.2,5.5,7.9,8.4,11.8l6.3-6.5L52,98c-1.1-0.8-2-2-2.9-3c-1-0.3-2.1-1-2.6-2
		c-0.3-0.3,0-1-0.4-1.2l-0.4,0.5c-1.1,0.5-1.5-0.6-2.3-1.1c-1-0.5-0.5-2.4-1.8-2c-0.5,0-0.7-0.6-1-0.9c-1.2,0.1-1.5-1.2-2.2-1.9
		c-0.1,0.3,0,0.7-0.4,0.9c-1.3,0.3-1.7-1.3-2.6-1.9c-0.2,0.1-0.4,0.3-0.7,0.3c-0.8-0.7-1.3-1.6-1.3-2.6c-1-1.2-0.6-3-0.4-4.4
		c0.2-0.4,0.7-0.6,0.6-1.1c0.3-0.7,1-0.7,1.6-0.8c0.3,0.1,0.5,0.4,0.6,0.6c0.4-0.3,1.3,0,1-0.9c0.5-0.5,1.3-0.6,2-0.8
		c0.5,0.6,0.8,1.4,1.4,2L40,76.8c-0.8-3.1-1.4-6.2-1.5-9.6c0-0.2-0.4-0.3-0.2-0.5l0.1,0.1C38.4,66.2,38.4,65.6,38.5,65.1z
		 M50.8,65.1l-0.7,0.3c-2.9-0.1-6,0.2-8.8-0.2l0.4,0.5l0.7,5.8c0.3,2.2,1.3,4.4,1.2,6.6c0.3-0.5,0.1-1.4,1-1.5
		c-0.3-0.7,0.7-1.3,0.1-1.9c0.3-1.5,0.5-3.1,1.8-4.2c1.6-0.1,1.7-2.2,3.3-2.3c0.8,0,1.3,1.1,1.7,1.4C50.5,68.5,50.5,66.5,50.8,65.1z
		 M67,69c0.9,1.6,1.4,3.5,2.3,5.1c0.6,1.4,1.8,2.6,2.4,4c0.6-1.1,1.8-2,2.6-3.1c0.1-0.5,0-0.9-0.3-1.2c-0.3-0.7,0-1.6-0.5-2.2
		c-0.8,0.3,0.3,1.1-0.1,1.6c-0.3,0.2-0.7-0.1-0.8-0.4c-0.7-0.1-1.3-0.8-1.5-1.4c0.6-0.4-0.2-0.5-0.3-0.9c-0.3-0.2-0.3-0.1-0.6,0.2
		c-0.2,0-0.3,0-0.5-0.1C69.8,68.9,67.7,69.9,67,69z M76.9,71.5c-0.2,0.8-0.7,1.5-1.3,2l0.1,0.1c0.8-0.5,1.3-1.5,2.3-1.6L76.9,71.5z
		 M101.8,74.1c0,0.5,0.1,1.1,0.5,1.5c1.2-0.2,0.7,1.5,1.8,1.4c0.6-0.2,0-0.7,0.2-1.1c-0.2-0.9-1.1-1-1.7-1.6
		c-0.1-0.2,0.1-0.3,0.2-0.5C102.3,73.4,102,73.7,101.8,74.1z M119.6,74.1c-0.9-0.1-2,0.5-2.8-0.2c-0.3-0.3-0.5,0.1-0.4,0.4
		c-0.3,0.5-0.6,1.1-1.4,0.9c-0.6-0.3-0.6-0.9-0.8-1.3c0,0.3-0.1,0.7-0.2,1c-0.7,0.7-0.9,1.4-1.4,2.1c-0.7,0.7-1.7,0.5-2.4,1.1
		c-0.1,1.5-1.8,1.2-2.7,1.7c-0.1,0.2,0.2,0.2,0.3,0.4c0.4,0.1,1,0.1,1.4-0.3c1.3,0.3,1-1.3,1.8-1.9c0.7-0.1,1.3-0.7,2-0.2
		c0.7,0.9,0.9,2.1,0.8,3.2c-0.8,0.8-0.4,2-0.9,2.9c0.1,1-1.1,1.5-1,2.6c-0.4,0.5-1.1,0.5-1.7,0.5c-2.5-0.9-5.1-1.5-7.9-1.8
		c-0.3,0.1-0.4,0.3-0.4,0.6c1.1,0.6,2.5,0.6,3.7,1.1c1.1,0.3,1.8,1.6,3.1,1.2c1.1-0.6,3,0.4,3.8-0.8c-0.1-1.2,0.9-2,1.4-3l0.4-0.1
		c0.6,0.7,0.6,1.6,0.9,2.4c0.9-0.9,1.6-2,2.4-3c2.1-3,3.8-6.3,4.6-9.7C121.2,73.7,120.4,73.9,119.6,74.1z M79.9,74.1
		c-1.4,2.2-3.9,4.2-5.8,6.3c3.4,2.8,7.1,4.5,11.3,5.2c0.2-0.9-0.1-1.9,0.3-2.6c0.3-0.7,1.2-0.7,1.8-0.5c0.4,0,0.6-0.5,0.4-0.8
		c-0.9-0.2-0.5-1.2-0.8-1.8c0-0.3,0.6-0.3,0.4-0.7c-0.6-0.5,0.3-1.1-0.2-1.6c0.2-0.2,0.4-0.5,0.7-0.5c-2,1-4.1-0.2-5.9-1
		C81.3,75.6,80.1,75.1,79.9,74.1z M98.2,79.6c-0.1,0.3-0.4,0.7,0,0.9c0.8-0.8,2.4-0.8,2.4-1.9C99.5,78.4,98.9,79,98.2,79.6z
		 M101.8,82c-1,0-1.5,0.8-2.2,1.4c-0.9,0.5-1.3-0.9-2-0.6c0,0.2,0.2,0.2,0.3,0.3c0.2,0.2,0.3,0.7,0,0.9c-1.1,1-1.6-0.5-2.6-0.4V84
		c0,0.2-0.1,0.6-0.4,0.4c-0.6-1-1.9-0.7-2.6-1.6c-0.4-0.2-0.8,0.1-1.1,0.3c-0.2,0.5-1.2-0.1-1,0.8c-0.8,0.3-0.9,1.1-1.4,1.6
		c-1-0.2-1.4,0.9-2.3,0.9c0.1,0.2,0,0.5,0.3,0.5c0.6,0.3,1.1,0.3,1.8,0.2c0.9-1.5,2.5-0.3,3.8-0.8c0.8,0.2,0.3,1,0.9,1.4
		c1.3-0.4,2.3,1.1,3.3,0.2c-0.1-1.5,1.6-1.4,2.5-1.7c1.4-0.8,3-2,2.9-3.9L101.8,82z M71.4,82.9c-1.9,2.3-4.1,4.6-6.3,6.4
		c1,0.1,1.5,1.1,2.3,1.6c4.7,3.9,10.6,5.8,16.1,7.2L82,97.4c-1.1-1.3-2.7-2.8-2.8-4.6c1.1-0.4,1-1.6,1.4-2.5c0.9-1,2.1-1.5,3.3-1.8
		c-3.2,1.3-6-1-8.6-2.3C73.9,85.2,72.2,84.4,71.4,82.9z M115.1,91.7l-0.2-0.6c-0.3,0.8-0.8,1.2-1.4,1.8c0,0.5-0.2,1.3,0.4,1.6
		c1.3,0.4,2.9,1.2,3.2,2.7c-0.5,1.4-3.1,2.6-1.5,4.2c0.5,0.8-0.8,1-0.5,1.7l0.4-0.6c1.9-1.5,3.9-2.9,5.6-4.7h0.2
		c-0.4-0.1-0.9,0.3-1.3,0.1c-0.9-0.4-1-1.2-1-2.1L115.1,91.7z M64.5,92.9l-0.1-0.2l0.1,0.4V92.9z M65.5,94.2c-0.4-0.3-0.7-0.5-0.8-1
		L65.5,94.2z M65.7,94.5c0.2,0.8,1.2,1.2,0.9,2.2c-0.5,0.9-1.6,0.9-2.5,0.9c-1.8-0.3-3.1,1.1-4.8,1.3c-1.5,0.5-2.1-1.4-3.5-1.3
		c8.8,7.7,18.8,12.4,30.5,13.1l0.9,0.6l-0.4-1.1v-8.3l-0.8,0.3C78.4,101.7,71.6,98.9,65.7,94.5z M123.9,100.4l-0.2-0.8
		c-0.9,1.7-2.8,2.8-4.3,4.2c-2,2-5.4,2.5-6.4,5.4c-1.1,1-1.5,2.6-3,3.1c-0.6,1.5-2.2,1.4-3.1,2.5c-2.6,2.4-4.3-1.5-6.7-2l-4.8,0.9
		c-1.7,0-3.3,0.6-4.9,0.1c0.2,3.2,0.2,6.7,0,9.9l0.6-0.4c15.2-0.7,28.3-6.4,39.5-16.6L123.9,100.4z M54,100.3l-0.1,0.4l-6.5,6.5
		c9.8,8.5,20.9,14,33.6,15.7c2,0.3,4.3,0.2,6.3,0.8l-0.5-0.8v-8.5l0.3-0.5l-1,0.3C73.8,113.3,63,108.9,54,100.3z M89.9,102.5
		l0.5,0.7c0,2.6,0.3,5.2,0,7.8c2.3-0.8,5-0.7,7.6-1.1c-0.5-0.2-1-0.3-1.4-0.8c-1.5-0.1-2.2-1.6-2.6-2.8c-0.2-0.9,0.3-1.5,0.7-2.3
		c-0.6-1.3-2.6-0.3-3.7-0.8C90.6,102.9,90.4,102.5,89.9,102.5z"/>
	<g>
		<path class="st0" d="M147.9,11.9c4.6,4.1,6.7,9.5,8.1,15l0.8,1.8c-6.7-4.8-12.8-11.3-17.1-18.1l-5.2-5.3
			C139,7.2,143.9,8.4,147.9,11.9z"/>
		<path class="st0" d="M30.8,20.2c-3.1,3.8-7,6.3-10.5,9.6c1.9-3.9,2-8.6,4.6-12.2C28.7,11,35.7,8.6,42,6.2
			C37.4,10.2,34.2,15.4,30.8,20.2z"/>
		<path class="st0" d="M164.2,27.1c1.5,6.6-0.7,13.1,0.7,19.7l-0.1,0.1c-3.6-7.1-11.2-10.4-16.5-16.1c-3.1-3.4-4.4-7.5-5.1-11.8
			c3,7.3,11.1,8.9,15.8,15c1.6,1.4,2.1,3.4,3.1,5l0.2-0.2c-2.7-5.7-3.6-12.2-5.4-18.3c-0.9-2.6-2.8-5.3-5.3-6.9
			C157.6,14.9,163,21.3,164.2,27.1z"/>
		<path class="st0" d="M25,14.7c-6.2,4.3-5.8,12-7.8,18.4c-0.6,2.4-1.7,4.5-2.3,7l0.2,0.1c1-2.7,2.9-5.3,5.1-7.6
			c4.4-4.1,11-6.6,13.2-12.7c-0.1,8.4-7.1,15-13.8,19.7c-2.8,2.4-5.4,5.2-7,8.3c-0.2-2.1,0.3-4.3,0.2-6.5
			c-0.7-7.3-1.3-15.7,3.9-21.2C19,17.5,21.8,15.6,25,14.7z"/>
		<path class="st0" d="M168.2,28.6c5.6,7.6,6.8,19.6,2.7,28.2c-1.5,3.7-2.6,7.6-3.2,11.7c-0.3-0.7-0.3-1.6-0.6-2.4
			c-2.2-8.5-10.2-14.5-13.5-22.5c-1-2.6-1.9-5.3-2.4-8.2c3.5,6.5,12.2,9.9,14.6,17.1c1,1.8,0.9,4.1,1.5,6c0.1,0,0.3-0.1,0.3-0.2
			c-1-7.4-0.7-15.1,0.3-22.5c-0.1-4-0.4-7.8-2.6-10.9C166.6,25.8,167.2,27.3,168.2,28.6z"/>
		<path class="st0" d="M11.7,26.2c-4.8,7.3-0.8,16.4-1,24.7l-0.6,8.5c0.1,0.1,0.1,0.3,0.3,0.2c0.3-0.9,0.3-2,0.5-2.9
			C12,49.9,18,45,23.2,40.3c1.1-1.2,2.1-2.5,2.6-3.9c-0.4,3.4-1.5,6.8-2.9,10c-4,7.9-11.5,14.3-12.8,23.3c-0.7-8.6-6.5-15.1-6-24.2
			C3.9,38,7,31.9,11.3,26.4C11.5,26.3,11.6,26.2,11.7,26.2z"/>
		<path class="st0" d="M173.4,77.6c-3.3,4.7-7.3,9.1-10.4,13.9c0.3-3.8,0.8-8.4-0.7-12c-2.6-7.7-4.8-15.6-5.5-24l0.1-3.2
			c1.9,8.7,10.4,14.6,9.9,24.3c0.2,2.4-0.5,4.3-1,6.4L166,83l0.4-0.4c1.3-4.8,1.9-9.8,3.8-14.2c2.8-6.4,6.3-12.8,4.8-20.6
			C179.3,56.9,178,69.1,173.4,77.6z"/>
		<path class="st0" d="M9.3,74.6c0.9,3.2,1.1,6.6,2.4,9.6c0.1,0.1,0.2-0.1,0.3-0.2c-3.2-9.1,1.4-17.5,6.1-24.6
			c1.1-1.9,1.8-4.1,2.4-6.3C21,57.3,20,62,19.4,66.3c-1.1,5.4-2.8,10.5-4.3,15.8c-1,3.3-0.7,7-0.2,10.4l-0.5-0.4
			C10.9,85.8,4.1,80.8,2.1,73.9C0.4,68.4-0.7,62,0.5,56c0.5-2.3,0.9-4.7,2-6.9C0.5,59,7.1,66,9.3,74.6z"/>
		<path class="st0" d="M160.4,92.5c-0.2,4.3-1.6,8-3.8,11.4h0.4c3-4,5.4-8.2,8.9-12c5.5-5.3,11.1-10.7,11.8-18
			c1.9,12.2-5,23-15.2,29.9c-4.2,2.7-8.4,5.3-12.5,8.4v-0.4c6.2-10.3,3.1-24.3,7-35.6l1.4-3.8C157.6,79.5,160.6,85.4,160.4,92.5z"/>
		<path class="st0" d="M25.2,106.4c0.7,2.3,2,4.4,2.9,6.6c-9.4-6.4-22.2-12.5-26.3-24.2c-1.8-4-2-9-1.6-13.7
			c0.8,10.4,12,15.9,17.2,24.6c1.2,1.8,2.3,3.7,3.9,5.2c-0.3-1.1-1.3-2-1.7-3.2c-1.8-3.6-2.5-7.9-2-12.3c0.5-5.3,2.7-10.3,1.9-15.9
			C24,83.5,22.6,95.7,25.2,106.4z"/>
		<path class="st0" d="M146.4,114.2c-1.6,2.8-3.9,5.5-6.4,7.7c0.8,0,1.5-0.8,2.3-1.2c6.8-6.7,15.6-8.6,22.9-14.1
			c2.9-2.3,5.6-5.4,6.9-8.7c-1.4,11.2-12.5,21.7-23,25c-5.4,1.4-11.2,1.9-16.5,3.7c8.9-7.7,8.4-19.5,14.4-28.5
			c1.9-2.6,3.5-5.2,5.7-7.7C149,97.7,150.6,107.1,146.4,114.2z"/>
		<path class="st0" d="M34,104.7c3.1,7.7,4.3,16.5,11.6,22.4c-7.9-2.6-17.1-1.9-24-6.7C14,115.7,7.2,107.8,5.8,99.1
			c5.2,11.8,18.3,12.8,27.1,20c1.6,1.4,3.3,2.6,5.1,3.5l0.1-0.1c-2-1.8-4.3-3.9-5.8-6.3c-5.1-7.1-3.3-17.2-7.2-24.8
			C28.7,95.6,31.8,100,34,104.7z"/>
		<path class="st0" d="M127.4,127.8c-1.9,1.3-4.3,1.5-6.3,2.4c2.8,0.1,5.4-0.9,8.2-1.2c10.4-1.6,22.3,0,29.6-8.8
			c-2.7,6.2-9.5,11.3-15.6,13.5c-10.6,4-21.3-0.9-31.5-2.6l-2-0.3v-0.1c4.8-1.1,9.6-2.6,13.4-6c5.7-5.5,10.8-11.1,17.1-15.4
			C135.6,115.4,135.1,123.9,127.4,127.8z"/>
		<path class="st0" d="M54.5,124.9c4,3.5,8.9,5.2,14,6.2c-1.2,0.4-2.8,0.3-4.2,0.7c-9.2,2.3-19.4,6-29.1,2.6c-6.3-2-12.8-7-16-13.2
			c8.4,9.5,22.1,6.4,33.3,8.8c1.6,0.2,3,0.8,4.7,0.6c-1.3-0.8-3.2-0.8-4.6-1.5c-8.8-3.1-10-12.6-14.8-19
			C43.8,114.2,48.9,119.7,54.5,124.9z"/>
		<path class="st0" d="M122.9,137.8c6.8,2.5,15.6,1.8,21.4-2.3c-3,3.7-7.1,6.4-11.3,7.9c-9.4,3.5-19.3-0.2-26.7-5.8
			c-3-1.9-5.6-4.6-9.5-4.4c-1.4,0-2.7,0-3.9,0.4c7.2,3.3,13.8,7.9,19.9,13.8c-1,1.2-2.4,2.3-3.6,3.3c-5.9-6.3-12.4-12.4-19.7-16
			c-1.4,0.2-2.8,1-4.1,1.7c-5.9,3.7-11.8,8.6-16.2,14.5l-3.8-3.1c6-6.1,12.7-10.9,20-14.3c-7.2-2.3-11.9,3.7-17.3,6.8
			c-6.4,4.4-15.5,6.5-23.2,3.5c-4.1-1.6-8.1-3.9-11.1-7.6c6,4.2,15.1,4.6,21.9,1.9c9.2-4,18.8-9.1,29.9-6.6c1.7,0,3.4,1.8,5.1,0.3
			c8.3-2.1,17.6-0.7,24.7,3.1L122.9,137.8z"/>
	</g>
</g>
<g>
	<path class="st0" d="M205.1,34.7h7.9c7.1,0,11.7,4.9,11.7,12.1v0.3c0,7.2-4.6,12.1-11.7,12.1h-7.9V34.7z M210.2,39.3v15.4h2.8
		c3.9,0,6.5-2.7,6.5-7.6V47c0-4.9-2.6-7.6-6.5-7.6H210.2z"/>
	<path class="st0" d="M227.4,34.7h15.8v4.6h-10.8v5.3h9.5v4.6h-9.5v5.5h10.9v4.6h-16V34.7z"/>
	<path class="st0" d="M244.2,34.7h5.5l5.2,16.9l5.2-16.9h5.4l-8.3,24.7h-4.7L244.2,34.7z"/>
	<path class="st0" d="M267.3,34.7h15.8v4.6h-10.8v5.3h9.5v4.6h-9.5v5.5h10.9v4.6h-16V34.7z"/>
	<path class="st0" d="M285.9,34.7h5.1v19.9h9.9v4.7h-15V34.7z"/>
	<path class="st0" d="M300.9,47.3v-0.4c0-7.4,4.6-12.5,11.1-12.5c6.5,0,11.1,5.1,11.1,12.5v0.4c0,7.3-4.6,12.5-11.1,12.5
		C305.5,59.7,300.9,54.6,300.9,47.3z M317.9,47.2v-0.2c0-4.8-2.5-7.9-5.9-7.9c-3.4,0-5.9,3-5.9,7.9v0.2c0,4.8,2.5,7.9,5.9,7.9
		C315.4,55,317.9,52,317.9,47.2z"/>
	<path class="st0" d="M325.9,34.7h8.2c5.5,0,9,3.2,9,8.4v0.1c0,5.7-4,8.5-9.2,8.6H331v7.5h-5.1V34.7z M333.8,47.3
		c2.6,0,4.1-1.6,4.1-3.9v0c0-2.6-1.5-4-4.2-4H331v7.9H333.8z"/>
	<path class="st0" d="M345.1,34.7h5.3l5.5,10l5.4-10h5.4v24.6h-5V43.6l-5.8,10.1h-0.1L350,43.7v15.6h-4.9V34.7z"/>
	<path class="st0" d="M370.3,34.7h15.8v4.6h-10.8v5.3h9.5v4.6h-9.5v5.5h10.9v4.6h-16V34.7z"/>
	<path class="st0" d="M388.9,34.7h4.7l9.4,14.3V34.7h5v24.6h-4.4l-9.7-14.8v14.8h-5V34.7z"/>
	<path class="st0" d="M416.3,39.4h-6.2v-4.7h17.4v4.7h-6.2v19.9h-5.1V39.4z"/>
</g>
<g>
	<path class="st0" d="M203.3,24.7l3.3-4.1c1.8,1.6,4,3,6.7,3c2.2,0,3.5-1.1,3.5-2.7v0c0-1.3-0.8-2.2-4.6-3.7
		c-4.8-1.8-7.7-3.7-7.7-8.3V8.9c0-4.7,3.6-7.9,8.8-7.9c3.2,0,6.2,1.1,8.7,3.3l-3.1,4.2c-1.7-1.4-3.7-2.5-5.7-2.5
		c-1.9,0-3.1,1-3.1,2.3v0c0,1.5,0.9,2.3,5.1,4c4.7,1.8,7.2,3.8,7.2,8v0.1c0,5-3.8,8.1-9,8.1C209.8,28.6,206.2,27.4,203.3,24.7z"/>
	<path class="st0" d="M224.6,17.8V1.3h5.6v16.5c0,3.8,1.8,5.7,4.7,5.7c2.9,0,4.7-1.8,4.7-5.6V1.3h5.5v16.4c0,7.4-4.1,11-10.3,11
		C228.6,28.7,224.6,25.1,224.6,17.8z"/>
	<path class="st0" d="M246.8,24.7l3.3-4.1c1.8,1.6,4,3,6.7,3c2.2,0,3.5-1.1,3.5-2.7v0c0-1.3-0.8-2.2-4.6-3.7
		c-4.8-1.8-7.7-3.7-7.7-8.3V8.9c0-4.7,3.6-7.9,8.8-7.9c3.2,0,6.2,1.1,8.7,3.3l-3.1,4.2c-1.7-1.4-3.7-2.5-5.7-2.5
		c-1.9,0-3.1,1-3.1,2.3v0c0,1.5,0.9,2.3,5.1,4c4.7,1.8,7.2,3.8,7.2,8v0.1c0,5-3.8,8.1-9,8.1C253.4,28.6,249.8,27.4,246.8,24.7z"/>
	<path class="st0" d="M273.1,6.5h-6.8V1.3h19.1v5.2h-6.8v21.8h-5.5V6.5z"/>
	<path class="st0" d="M292.6,1.2h5.3l9.7,27.1h-5.8l-2-5.9h-9.3l-2,5.9H283L292.6,1.2z M298.1,17.5l-2.9-8.8l-3,8.8H298.1z"/>
	<path class="st0" d="M309.7,1.3h5.6v26.9h-5.6V1.3z"/>
	<path class="st0" d="M319.4,1.3h5.1L334.9,17V1.3h5.5v26.9h-4.8L324.9,12v16.3h-5.5V1.3z"/>
	<path class="st0" d="M351.9,1.2h5.3l9.7,27.1h-5.8l-2-5.9h-9.3l-2,5.9h-5.6L351.9,1.2z M357.4,17.5l-2.9-8.8l-3,8.8H357.4z"/>
	<path class="st0" d="M368.8,1.3h10c3,0,5.5,0.8,7,2.3c1.2,1.2,1.8,2.7,1.8,4.6v0.1c0,3.2-1.7,4.9-3.7,5.9c2.9,1.1,4.8,2.9,4.8,6.4
		v0.2c0,4.9-3.9,7.4-9.7,7.4h-10.3V1.3z M382.2,9.3c0-2-1.4-3-3.8-3h-4.2v6.1h3.9C380.6,12.3,382.2,11.3,382.2,9.3L382.2,9.3z
		 M379.1,17h-4.9v6.3h5c2.5,0,4.1-1.1,4.1-3.2v0C383.3,18.2,381.9,17,379.1,17z"/>
	<path class="st0" d="M391.4,1.3h5.6v21.8h10.9v5.1h-16.5V1.3z"/>
	<path class="st0" d="M410.2,1.3h17.4v5h-11.8v5.8h10.4v5h-10.4v6h12v5h-17.5V1.3z"/>
</g>
<path class="st0" d="M466.3,28.3h27.2c-0.5,21.9-12.6,32.9-28.8,32.9c-17.5,0-28.7-14.7-28.7-30.6C436,14.7,447.3,0,464.8,0
	c19.4,0,24.7,12.1,26.9,18.4l-12.3,0.8c-2.1-5.2-6.4-8.6-14.6-8.6c-9.3,0-16.5,7.5-16.5,20.1c0,10.6,6.7,20.1,17.3,20.1
	c9.5,0,13.9-6.7,14.9-12.3h-14.1V28.3z"/>
<path class="st0" d="M609.9,1.3h11.7v47.9h22.6v11h-34.3V1.3z"/>
<path class="st0" d="M677.1,16.8c0-4.1-3.9-6.6-8.6-6.6c-5.9,0-9.4,2.6-9.4,6.5c0,4.1,3.9,6,6.8,7l10.8,3.4
	c7.8,2.5,13.4,7,13.4,16.1c0,7.2-5.2,18-21.4,18c-20.4,0-22.3-13.2-22.3-18.5l11.7-0.2c0,6.3,4.9,8.7,10.6,8.7c4,0,9.6-2,9.6-6.5
	c0-3.1-1.3-4.8-7.1-6.9l-12.8-4.6c-6.5-2.3-11-8.1-11-14.7c0-7.5,5.2-18.3,20.4-18.3c18.2,0,21,12,21,16.4L677.1,16.8z"/>
<g>
	<path class="st1" d="M512.3,23.4c0.7-1.2,1.6-2.4,2.6-3.3l-8.5-9.4c-2.1,2.1-4,4.4-5.4,7.1L512.3,23.4z"/>
	<path class="st2" d="M533.2,16.8c1.3,0.6,2.5,1.3,3.6,2.2l8.6-9.3c-2.3-1.9-4.8-3.5-7.6-4.7L533.2,16.8z"/>
	<path class="st3" d="M552.8,19.6l-11.3,5.7c0.5,1.3,0.9,2.6,1.1,4l12.6-1.2C554.9,25,554,22.2,552.8,19.6"/>
	<path class="st4" d="M540.7,23.6l11.3-5.7c-1.4-2.6-3.2-5-5.3-7l-8.6,9.3C539.1,21.2,540,22.4,540.7,23.6"/>
	<path class="st5" d="M510,31.6c0-0.3,0-0.5,0-0.8l-12.6-1.1c0,0.6-0.1,1.3-0.1,1.9c0,2.4,0.3,4.8,0.9,7l12.2-3.5
		C510.2,34,510,32.8,510,31.6"/>
	<path class="st6" d="M539.1,42c-0.9,1.1-1.9,2.1-3.1,2.9l6.7,10.8c2.5-1.7,4.7-3.7,6.5-6.1L539.1,42z"/>
	<path class="st7" d="M542.8,31.6c0,1.2-0.1,2.4-0.4,3.5l12.2,3.5c0.6-2.2,0.9-4.6,0.9-7c0-0.6,0-1.2-0.1-1.8L542.8,31
		C542.8,31.2,542.8,31.4,542.8,31.6"/>
	<path class="st8" d="M514,42.3l-10.1,7.7c1.9,2.3,4.1,4.3,6.6,6l6.7-10.8C516,44.3,514.9,43.3,514,42.3"/>
	<path class="st9" d="M510.3,29.1c0.2-1.4,0.6-2.8,1.2-4.1l-11.3-5.6c-1.3,2.7-2.1,5.6-2.5,8.6L510.3,29.1z"/>
	<path class="st10" d="M541.1,56.7l-6.7-10.8c-1.2,0.7-2.5,1.2-3.9,1.6l2.3,12.5C535.8,59.3,538.6,58.2,541.1,56.7"/>
	<path class="st11" d="M541.9,36.9c-0.4,1.3-1,2.5-1.8,3.6l10.1,7.6c1.6-2.4,2.9-5,3.8-7.8L541.9,36.9z"/>
	<path class="st12" d="M528.8,47.8c-0.8,0.1-1.6,0.2-2.4,0.2c-0.6,0-1.3,0-1.9-0.1l-2.3,12.5c1.4,0.2,2.8,0.3,4.3,0.3
		c1.6,0,3.2-0.1,4.7-0.4L528.8,47.8z"/>
	<path class="st13" d="M527.5,15.3c1.4,0.1,2.8,0.4,4.1,0.8l4.6-11.8c-2.7-1-5.6-1.5-8.6-1.6V15.3z"/>
	<path class="st14" d="M522.7,47.6c-1.4-0.3-2.8-0.8-4-1.5L512,56.8c2.6,1.5,5.4,2.6,8.3,3.2L522.7,47.6z"/>
	<path class="st15" d="M521.5,16c1.3-0.4,2.7-0.7,4.1-0.7V2.6c-3,0.1-6,0.6-8.7,1.6L521.5,16z"/>
	<path class="st16" d="M512.9,40.8c-0.8-1.2-1.5-2.5-1.9-3.9l-12.2,3.5c0.9,2.9,2.3,5.6,4,8L512.9,40.8z"/>
	<path class="st17" d="M516.3,18.8c1.1-0.8,2.2-1.6,3.5-2.1l-4.6-11.8c-2.7,1.1-5.2,2.7-7.5,4.6L516.3,18.8z"/>
</g>
<g>
	<path class="st0" d="M590.6,47.6h-21.8l-3.9,12.5h-12.8l21.7-59.6h12.5l21.4,59.6h-13.1L590.6,47.6z M579.8,14.8h-0.2L572.1,38
		h15.3L579.8,14.8z"/>
</g>
<rect x="201.7" y="76.1" class="st0" width="488.4" height="74.9"/>
<g>
	<path class="st18" d="M232.1,114.1v18.9h-8V94.1h8v17.1l8.8-17.1h7.9l-9.3,17.5l9.5,21.4h-8.5L232.1,114.1z"/>
	<path class="st18" d="M257.7,108.6v24.4h-6.8V94.1h7.9l8.7,22.3V94.1h6.7v38.8h-7.1L257.7,108.6z"/>
	<path class="st18" d="M277.7,122.9v-18.8c0-6.1,3.7-10.5,12.1-10.5c8.5,0,12.2,4.4,12.2,10.5v18.8c0,6-3.7,10.5-12.2,10.5
		C281.4,133.4,277.7,128.9,277.7,122.9z M294,124v-20.8c0-2.3-1.3-4-4.2-4c-2.8,0-4.1,1.7-4.1,4V124c0,2.3,1.3,4,4.1,4
		C292.8,128,294,126.3,294,124z"/>
	<path class="st18" d="M322.3,109l-4.5,24h-7.6l-6.4-38.8h7.8l3.7,24.6h0.1l4-24.6h6.6l4.4,24.6h0.1l3.7-24.6h6.8l-6.2,38.8h-7.6
		L322.3,109L322.3,109z"/>
	<path class="st18" d="M343.3,94.1h8v33.5h9.6v5.3h-17.6V94.1z"/>
	<path class="st18" d="M363.5,94.1h19.2v5.3h-11.1v11.1h8v5.3h-8v11.8h11.1v5.3h-19.2V94.1z"/>
	<path class="st18" d="M410,104.5v18c0,6-3,10.4-11.6,10.4H386V94.1h12.4C407,94.1,410,98.5,410,104.5z M397.4,127.6
		c3.3,0,4.6-1.6,4.6-4v-20.3c0-2.3-1.3-3.9-4.6-3.9H394v28.2H397.4z"/>
	<path class="st18" d="M425.7,112.2h11.4v20.7h-5.8v-4.2c-1.1,2.9-3.3,4.7-7.7,4.7c-6.9,0-10.1-4.5-10.1-10.5v-18.8
		c0-6.1,3.6-10.5,12.1-10.5c8.9,0,11.5,4,11.5,9.7v3.4h-7.3v-4c0-2.4-1.1-3.8-4-3.8c-2.9,0-4.2,1.7-4.2,4V124c0,2.3,1.2,4,4,4
		c2.6,0,4-1.2,4-3.7v-6.9h-3.8V112.2z"/>
	<path class="st18" d="M440.7,94.1h19.2v5.3h-11.1v11.1h8v5.3h-8v11.8h11.1v5.3h-19.2V94.1z"/>
	<path class="st18" d="M469.4,94.1h11.9c8.1,0,11.1,3.3,11.1,8.7v8.2c0,5.4-3,8.8-11.1,8.8h-3.9v13.2h-8V94.1z M477.5,99.5v15.3h3
		c2.8,0,4-1.1,4-3.2v-8.9c0-2.1-1.2-3.1-4-3.1H477.5z"/>
	<path class="st18" d="M495.6,94.1h8v33.5h9.6v5.3h-17.6V94.1z"/>
	<path class="st18" d="M514.5,132.9l9-38.8h9.2l9.1,38.8h-8.3l-1.5-7.1h-8.5l-1.4,7.1H514.5z M524.6,120.6h6.4l-3.2-15.6h-0.1
		L524.6,120.6z"/>
	<path class="st18" d="M539.7,94.1H561v5.3h-6.6v33.5h-8.1V99.5h-6.6V94.1z"/>
	<path class="st18" d="M563.7,94.1h18.8v5.3h-10.8v11.1h8v5.3h-8v17.1h-8V94.1z"/>
	<path class="st18" d="M584.3,122.9v-18.8c0-6.1,3.7-10.5,12.1-10.5c8.5,0,12.2,4.4,12.2,10.5v18.8c0,6-3.7,10.5-12.2,10.5
		C588,133.4,584.3,128.9,584.3,122.9z M600.6,124v-20.8c0-2.3-1.3-4-4.2-4c-2.8,0-4.1,1.7-4.1,4V124c0,2.3,1.3,4,4.1,4
		C599.3,128,600.6,126.3,600.6,124z"/>
	<path class="st18" d="M620.2,115.1v17.8h-8V94.1h11.7c8.1,0,11.1,3.3,11.1,8.7v5c0,4.2-1.8,6.6-6.4,7.5l7.7,17.6h-8.5L620.2,115.1z
		 M620.2,99.5v12.1h2.7c2.8,0,4-1.1,4-3.2v-5.7c0-2.1-1.2-3.1-4-3.1H620.2z"/>
	<path class="st18" d="M660.5,107.8h-0.2l-5.4,25.2h-3.7l-6-25.2h-0.1v25.2h-6.6V94.1h9.4l5.2,21.9h0.1l4.7-21.9h10.2v38.8h-7.3
		V107.8z"/>
</g>
</svg>
