<?xml version="1.0" encoding="utf-8"?>
<!-- Generator: Adobe Illustrator 19.1.0, SVG Export Plug-In . SVG Version: 6.00 Build 0)  -->
<svg version="1.1" id="Layer_1" xmlns="http://www.w3.org/2000/svg" xmlns:xlink="http://www.w3.org/1999/xlink" x="0px" y="0px"
	 viewBox="0 0 439.9 147.3" style="enable-background:new 0 0 439.9 147.3;" xml:space="preserve">
<style type="text/css">
	.st0{fill:#5FBA47;}
	.st1{fill:#E4B632;}
	.st2{fill:#C4202F;}
	.st3{fill:#4B9F46;}
	.st4{fill:#418045;}
	.st5{fill:#F8C219;}
	.st6{fill:#EE422A;}
	.st7{fill:#F99E29;}
	.st8{fill:#1D95D3;}
	.st9{fill:#A21C44;}
	.st10{fill:#29BCE1;}
	.st11{fill:#F16B2D;}
	.st12{fill:#E6253D;}
	.st13{fill:#DC1769;}
	.st14{fill:#16496B;}
	.st15{fill:#C5962E;}
	.st16{fill:#086A9D;}
	.st17{fill:#CCCCCC;}
</style>
<g>
	<path class="st0" d="M37.8,52.6c1.8-3.1,4.1-6,6.6-8.5L22.8,20.4c-5.4,5.2-10.1,11.2-13.7,17.9L37.8,52.6z"/>
	<path class="st1" d="M90.9,35.9c3.3,1.5,6.3,3.4,9.1,5.7l21.7-23.7c-5.7-4.9-12.2-9-19.2-12L90.9,35.9z"/>
	<path class="st2" d="M140.6,43l-28.8,14.3c1.4,3.2,2.4,6.6,2.9,10.2l32-3C145.8,56.9,143.7,49.7,140.6,43"/>
	<path class="st3" d="M109.8,53.2l28.8-14.3c-3.6-6.6-8.1-12.6-13.4-17.9l-21.7,23.7C105.9,47.2,108,50.1,109.8,53.2"/>
	<path class="st4" d="M32.1,73.6c0-0.6,0-1.3,0.1-1.9l-32-2.9C0.1,70.4,0,72,0,73.6c0,6.1,0.8,12.1,2.2,17.8l30.9-8.9
		C32.5,79.7,32.1,76.7,32.1,73.6"/>
	<path class="st5" d="M105.8,99.9c-2.3,2.8-4.9,5.2-7.8,7.3l16.9,27.4c6.3-4.3,11.9-9.4,16.6-15.4L105.8,99.9z"/>
	<path class="st6" d="M115.2,73.6c0,3-0.3,6-1,8.8l30.9,8.9c1.4-5.7,2.2-11.6,2.2-17.7c0-1.5-0.1-3-0.1-4.5l-32,3
		C115.2,72.6,115.2,73.1,115.2,73.6"/>
	<path class="st7" d="M42.1,100.6L16.5,120c4.8,5.9,10.4,11,16.7,15.1l16.9-27.3C47.1,105.7,44.4,103.3,42.1,100.6"/>
	<path class="st8" d="M32.6,67.1c0.6-3.6,1.6-7.1,3.1-10.3L6.9,42.4c-3.2,6.8-5.4,14.1-6.3,21.8L32.6,67.1z"/>
	<path class="st9" d="M110.9,137.1l-16.9-27.3c-3.1,1.7-6.4,3.1-9.9,4l6,31.6C97.6,143.7,104.6,140.9,110.9,137.1"/>
	<path class="st10" d="M113,86.9c-1.1,3.3-2.6,6.4-4.5,9.3l25.7,19.4c4.2-6,7.5-12.6,9.7-19.7L113,86.9z"/>
	<path class="st11" d="M79.6,114.7c-2,0.3-4,0.4-6,0.4c-1.6,0-3.2-0.1-4.8-0.3l-6,31.6c3.5,0.5,7.1,0.8,10.8,0.8
		c4.1,0,8.1-0.3,11.9-1L79.6,114.7z"/>
	<path class="st12" d="M76.3,32.2c3.6,0.2,7,0.9,10.3,2l11.5-30C91.3,1.7,83.9,0.3,76.3,0V32.2z"/>
	<path class="st13" d="M64.2,114.1c-3.6-0.8-7-2.1-10.2-3.9l-16.9,27.4c6.5,3.7,13.6,6.5,21.2,8.1L64.2,114.1z"/>
	<path class="st14" d="M61.2,34c3.3-1.1,6.9-1.7,10.5-1.9V0c-7.7,0.2-15.2,1.6-22.1,4L61.2,34z"/>
	<path class="st15" d="M39.3,96.9c-2-3-3.7-6.3-4.9-9.8L3.5,95.9c2.3,7.4,5.8,14.2,10.2,20.4L39.3,96.9z"/>
	<path class="st16" d="M47.9,41.1c2.7-2.2,5.7-4,8.9-5.4l-11.6-30c-6.9,2.9-13.3,6.8-19,11.6L47.9,41.1z"/>
</g>
<g>
	<path class="st17" d="M173.5,108.3v14.2h-4.9V93.3h4.9v12.9l5.3-12.9h4.8l-5.7,13.2l5.8,16.1h-5.2L173.5,108.3z"/>
	<path class="st17" d="M189.2,104.2v18.4H185V93.3h4.8l5.3,16.8V93.3h4.1v29.2H195L189.2,104.2z"/>
	<path class="st17" d="M201.4,115v-14.1c0-4.6,2.2-7.9,7.4-7.9c5.2,0,7.5,3.3,7.5,7.9V115c0,4.5-2.2,7.9-7.5,7.9
		C203.7,122.9,201.4,119.5,201.4,115z M211.4,115.8v-15.7c0-1.8-0.8-3-2.5-3c-1.7,0-2.5,1.3-2.5,3v15.7c0,1.8,0.8,3,2.5,3
		C210.6,118.8,211.4,117.6,211.4,115.8z"/>
	<path class="st17" d="M228.7,104.5l-2.8,18.1h-4.6l-3.9-29.2h4.7l2.3,18.5h0l2.5-18.5h4l2.7,18.5h0l2.2-18.5h4.1l-3.8,29.2h-4.7
		L228.7,104.5L228.7,104.5z"/>
	<path class="st17" d="M241.5,93.3h4.9v25.2h5.9v4h-10.8V93.3z"/>
	<path class="st17" d="M253.9,93.3h11.7v4h-6.8v8.4h4.9v4h-4.9v8.9h6.8v4h-11.7V93.3z"/>
	<path class="st17" d="M282.3,101.2v13.5c0,4.5-1.9,7.9-7.1,7.9h-7.6V93.3h7.6C280.5,93.3,282.3,96.6,282.3,101.2z M274.6,118.5
		c2,0,2.8-1.2,2.8-3v-15.3c0-1.7-0.8-2.9-2.8-2.9h-2.1v21.2H274.6z"/>
	<path class="st17" d="M291.9,106.9h7v15.6h-3.5v-3.2c-0.6,2.2-2,3.5-4.7,3.5c-4.2,0-6.2-3.4-6.2-7.9v-14.1c0-4.6,2.2-7.9,7.4-7.9
		c5.4,0,7,3,7,7.3v2.6h-4.5v-3c0-1.8-0.7-2.8-2.5-2.8c-1.8,0-2.5,1.3-2.5,3v15.7c0,1.8,0.7,3,2.4,3c1.6,0,2.4-0.9,2.4-2.8v-5.2h-2.3
		V106.9z"/>
	<path class="st17" d="M301,93.3h11.7v4h-6.8v8.4h4.9v4h-4.9v8.9h6.8v4H301V93.3z"/>
	<path class="st17" d="M318.6,93.3h7.3c5,0,6.8,2.5,6.8,6.6v6.2c0,4.1-1.8,6.6-6.8,6.6h-2.4v9.9h-4.9V93.3z M323.5,97.3v11.5h1.8
		c1.7,0,2.4-0.8,2.4-2.4v-6.7c0-1.6-0.7-2.4-2.4-2.4H323.5z"/>
	<path class="st17" d="M334.6,93.3h4.9v25.2h5.9v4h-10.8V93.3z"/>
	<path class="st17" d="M346.2,122.6l5.5-29.2h5.6l5.6,29.2h-5l-0.9-5.3h-5.2l-0.9,5.3H346.2z M352.4,113.3h3.9l-1.9-11.7h0
		L352.4,113.3z"/>
	<path class="st17" d="M361.5,93.3h13.1v4h-4.1v25.2h-5V97.3h-4.1V93.3z"/>
	<path class="st17" d="M376.2,93.3h11.5v4h-6.6v8.4h4.9v4h-4.9v12.9h-4.9V93.3z"/>
	<path class="st17" d="M388.8,115v-14.1c0-4.6,2.2-7.9,7.4-7.9c5.2,0,7.5,3.3,7.5,7.9V115c0,4.5-2.2,7.9-7.5,7.9
		C391.1,122.9,388.8,119.5,388.8,115z M398.8,115.8v-15.7c0-1.8-0.8-3-2.5-3c-1.7,0-2.5,1.3-2.5,3v15.7c0,1.8,0.8,3,2.5,3
		C398,118.8,398.8,117.6,398.8,115.8z"/>
	<path class="st17" d="M410.8,109.1v13.4h-4.9V93.3h7.2c5,0,6.8,2.5,6.8,6.6v3.8c0,3.1-1.1,5-3.9,5.7l4.7,13.3h-5.2L410.8,109.1z
		 M410.8,97.3v9.1h1.6c1.7,0,2.4-0.9,2.4-2.4v-4.3c0-1.6-0.7-2.4-2.4-2.4H410.8z"/>
	<path class="st17" d="M435.4,103.6h-0.1l-3.3,19h-2.3l-3.7-19h-0.1v19h-4.1V93.3h5.7l3.2,16.5h0l2.8-16.5h6.2v29.2h-4.5V103.6z"/>
</g>
<rect x="168.6" y="84.8" width="271.3" height="1.3"/>
<g>
	<g>
		<g>
			<path d="M168.6,41.5v-2.9h3.8v2.9c0,1.2,0.6,1.9,2,1.9c1.3,0,1.9-0.8,1.9-1.9v-0.8c0-1.2-0.6-2-1.8-3l-2.4-2.1
				c-2.3-2-3.4-3.3-3.4-5.7v-0.7c0-2.7,1.7-4.7,5.7-4.7c4.1,0,5.7,1.8,5.7,4.9V31h-3.7v-1.9c0-1.2-0.6-1.8-1.9-1.8
				c-1.1,0-1.9,0.6-1.9,1.8v0.4c0,1.2,0.7,1.9,1.9,2.9l2.6,2.3c2.2,2,3.3,3.2,3.3,5.6v1c0,2.9-1.8,5-5.9,5S168.6,44.3,168.6,41.5z"
				/>
			<path d="M193.7,24.6v16.2c0,3.3-1.6,5.5-5.7,5.5c-4.3,0-6.1-2.2-6.1-5.5V24.6h4.1v16.6c0,1.3,0.6,2.1,2,2.1s2-0.9,2-2.1V24.6
				H193.7z"/>
			<path d="M195.2,41.5v-2.9h3.8v2.9c0,1.2,0.6,1.9,2,1.9c1.3,0,1.9-0.8,1.9-1.9v-0.8c0-1.2-0.6-2-1.8-3l-2.4-2.1
				c-2.3-2-3.4-3.3-3.4-5.7v-0.7c0-2.7,1.7-4.7,5.7-4.7c4.1,0,5.7,1.8,5.7,4.9V31h-3.7v-1.9c0-1.2-0.6-1.8-1.9-1.8
				c-1.1,0-1.9,0.6-1.9,1.8v0.4c0,1.2,0.7,1.9,1.9,2.9l2.6,2.3c2.2,2,3.3,3.2,3.3,5.6v1c0,2.9-1.8,5-5.9,5S195.2,44.3,195.2,41.5z"
				/>
			<path d="M207.5,24.6h10.8v2.9h-3.3v18.5h-4.1V27.6h-3.3V24.6z"/>
			<path d="M217.2,46.1l4.6-21.5h4.6l4.6,21.5h-4.2l-0.7-3.9h-4.3l-0.7,3.9H217.2z M222.3,39.3h3.2l-1.6-8.6h0L222.3,39.3z"/>
			<path d="M232.1,24.6h4.1v21.5h-4.1V24.6z"/>
			<path d="M241.4,32.6v13.5H238V24.6h4l4.4,12.3V24.6h3.4v21.5h-3.6L241.4,32.6z"/>
			<path d="M250.9,46.1l4.6-21.5h4.6l4.6,21.5h-4.2l-0.7-3.9h-4.3l-0.7,3.9H250.9z M256,39.3h3.2l-1.6-8.6h0L256,39.3z"/>
			<path d="M265.8,24.6h5.9c4.1,0,5.4,1.7,5.4,4.7v2.2c0,1.8-0.7,2.9-2.4,3.4c2,0.4,3,1.6,3,3.6v2.8c0,3-1.5,4.7-5.6,4.7h-6.3V24.6z
				 M269.9,33.7h1.4c1.3,0,1.9-0.6,1.9-1.7v-2.6c0-1.2-0.6-1.7-2-1.7h-1.4V33.7z M269.9,36.4v6.7h1.8c1.4,0,2-0.6,2-1.7v-3.2
				c0-1.1-0.6-1.7-2-1.7H269.9z"/>
			<path d="M279.2,24.6h4.1v18.5h4.8v2.9h-8.9V24.6z"/>
			<path d="M289.4,24.6h9.7v2.9h-5.6v6.1h4v2.9h-4v6.5h5.6v2.9h-9.7V24.6z"/>
		</g>
		<g>
			<path d="M179.9,61.5v9.3c0,3.1-1.4,5.4-5.5,5.4h-5.9v-20h5.9C178.5,56.2,179.9,58.4,179.9,61.5z M174,73.4c1.6,0,2.2-0.8,2.2-2
				V60.9c0-1.2-0.6-2-2.2-2h-1.6v14.5H174z"/>
			<path d="M181.6,56.2h9v2.7h-5.3v5.7h3.8v2.7h-3.8v6.1h5.3v2.7h-9V56.2z"/>
			<path d="M204.3,56.2l-4.3,20h-4.1l-4.3-20h3.9l2.6,14h0l2.7-14H204.3z"/>
			<path d="M205.4,56.2h9v2.7h-5.3v5.7h3.8v2.7h-3.8v6.1h5.3v2.7h-9V56.2z"/>
			<path d="M215.9,56.2h3.8v17.3h4.5v2.7h-8.3V56.2z"/>
			<path d="M225.3,71v-9.7c0-3.1,1.7-5.4,5.7-5.4c4,0,5.8,2.3,5.8,5.4V71c0,3.1-1.7,5.4-5.8,5.4C227,76.4,225.3,74.1,225.3,71z
				 M233,71.6V60.8c0-1.2-0.6-2.1-2-2.1c-1.3,0-1.9,0.9-1.9,2.1v10.7c0,1.2,0.6,2.1,1.9,2.1C232.4,73.6,233,72.8,233,71.6z"/>
			<path d="M238.4,56.2h5.6c3.8,0,5.2,1.7,5.2,4.5v4.2c0,2.8-1.4,4.5-5.2,4.5h-1.8v6.8h-3.8V56.2z M242.2,58.9v7.9h1.4
				c1.3,0,1.9-0.6,1.9-1.7v-4.6c0-1.1-0.6-1.6-1.9-1.6H242.2z"/>
			<path d="M261.2,63.2L261.2,63.2l-2.7,13h-1.8l-2.8-13h-0.1v13h-3.1v-20h4.4l2.5,11.3h0l2.2-11.3h4.8v20h-3.5V63.2z"/>
			<path d="M266.3,56.2h9v2.7h-5.3v5.7h3.8v2.7h-3.8v6.1h5.3v2.7h-9V56.2z"/>
			<path d="M280,63.6v12.6h-3.2v-20h3.7l4.1,11.5V56.2h3.2v20h-3.3L280,63.6z"/>
			<path d="M289,56.2h10.1v2.7H296v17.3h-3.8V58.9H289V56.2z"/>
		</g>
	</g>
	<g>
		<path d="M320.2,48.7h12.1v27.1h-6.1v-5.5c-1.1,3.8-3.5,6.1-8.2,6.1c-7.3,0-10.7-5.8-10.7-13.7V38.1c0-7.9,3.8-13.7,12.8-13.7
			c9.4,0,12.2,5.2,12.2,12.7v4.5h-7.8v-5.2c0-3.1-1.2-4.9-4.3-4.9s-4.4,2.2-4.4,5.2v27.3c0,3.1,1.3,5.2,4.2,5.2
			c2.8,0,4.2-1.6,4.2-4.9v-9h-4V48.7z"/>
		<path d="M336.1,62.7V38.1c0-7.9,3.9-13.7,12.9-13.7c9.1,0,13,5.8,13,13.7v24.6c0,7.9-3.9,13.7-13,13.7
			C340,76.4,336.1,70.6,336.1,62.7z M353.4,64.1V36.8c0-3.1-1.4-5.2-4.4-5.2c-3,0-4.3,2.2-4.3,5.2v27.3c0,3.1,1.4,5.2,4.3,5.2
			C352.1,69.3,353.4,67.1,353.4,64.1z"/>
		<path d="M363.3,75.8l9.6-50.8h9.7l9.7,50.8h-8.8l-1.6-9.3h-9.1l-1.5,9.3H363.3z M374,59.7h6.8l-3.4-20.4h-0.1L374,59.7z"/>
		<path d="M394.7,25h8.5v43.9h10.2v7h-18.7V25z"/>
		<path d="M415.3,64.9v-6.8h7.9v7c0,2.8,1.3,4.5,4.2,4.5c2.7,0,3.9-1.8,3.9-4.5v-1.9c0-2.9-1.2-4.7-3.8-7.2l-5-5
			c-4.9-4.8-7.1-7.7-7.1-13.6v-1.7c0-6.3,3.7-11.2,12-11.2c8.5,0,11.9,4.2,11.9,11.5v4.1h-7.8v-4.4c0-2.9-1.3-4.3-4-4.3
			c-2.4,0-4,1.3-4,4.2v1c0,2.8,1.6,4.5,4,6.9l5.5,5.4c4.6,4.7,6.9,7.6,6.9,13.2v2.5c0,7-3.8,11.9-12.4,11.9
			C418.7,76.4,415.3,71.6,415.3,64.9z"/>
	</g>
</g>
</svg>
